<svg width="20" height="16" viewBox="0 0 20 16" fill="none" xmlns="http://www.w3.org/2000/svg">
<path fill-rule="evenodd" clip-rule="evenodd" d="M19.1607 0.351339C18.5962 0.712926 17.3001 1.23836 16.6609 1.23836V1.23944C15.931 0.476977 14.9034 0.000976562 13.7638 0.000976562C11.5505 0.000976562 9.75572 1.79575 9.75572 4.00823C9.75572 4.31563 9.79134 4.61548 9.85718 4.90302H9.85653C6.85417 4.82423 3.57053 3.31938 1.59378 0.743796C0.378413 2.84748 1.43015 5.18711 2.80936 6.03959C2.33725 6.07521 1.46814 5.98519 1.05906 5.58604C1.03165 6.98231 1.70301 8.83234 4.15101 9.50349C3.67954 9.75714 2.84498 9.68439 2.4821 9.63042C2.60946 10.8091 4.26003 12.35 6.06494 12.35C5.42164 13.0941 3.00127 14.4437 0.285156 14.0144C2.12979 15.1367 4.27967 15.7867 6.55519 15.7867C13.0217 15.7867 18.0435 10.5459 17.7732 4.08076C17.7722 4.07364 17.7722 4.06651 17.7715 4.05874C17.7722 4.04212 17.7732 4.0255 17.7732 4.00823C17.7732 3.98815 17.7715 3.96915 17.7709 3.94973C18.3596 3.54712 19.1494 2.83496 19.7137 1.89764C19.3865 2.07789 18.4047 2.43883 17.4911 2.52842C18.0774 2.21195 18.9461 1.17554 19.1607 0.351339Z" fill="white"/>
</svg>
