<svg width="16" height="16" viewBox="0 0 16 16" fill="none" xmlns="http://www.w3.org/2000/svg">
<path d="M3.58134 16H0.264227V5.31786H3.58134V16V16ZM1.921 3.86071C0.860522 3.86071 0 2.98214 0 1.92143C0 0.860714 0.860522 0 1.921 0C2.98148 0 3.842 0.860714 3.842 1.92143C3.842 2.98214 2.98148 3.86071 1.921 3.86071ZM15.9964 16H12.6865V10.8C12.6865 9.56071 12.6615 7.97143 10.9618 7.97143C9.23722 7.97143 8.973 9.31786 8.973 10.7107V16H5.65945V5.31786H8.84088V6.775H8.8873C9.33006 5.93571 10.412 5.05 12.0259 5.05C15.3823 5.05 16 7.26071 16 10.1321V16H15.9964Z" fill="#ffffff"/>
</svg>
