<svg width="23" height="17" viewBox="0 0 23 17" fill="none" xmlns="http://www.w3.org/2000/svg">
<path fill-rule="evenodd" clip-rule="evenodd" d="M20.2437 0.931066C21.2166 1.19014 21.9838 1.9486 22.2455 2.91075C22.7321 4.66809 22.7134 8.3311 22.7134 8.3311C22.7134 8.3311 22.7134 11.9755 22.2458 13.7329C21.9838 14.695 21.2167 15.4534 20.2437 15.7124C18.4663 16.175 11.3568 16.175 11.3568 16.175C11.3568 16.175 4.26572 16.175 2.46974 15.694C1.49668 15.4349 0.729761 14.6765 0.467746 13.7144C0 11.9755 0 8.31259 0 8.31259C0 8.31259 0 4.66809 0.467746 2.91075C0.729484 1.94874 1.51539 1.17164 2.4696 0.912835C4.24701 0.450195 11.3565 0.450195 11.3565 0.450195C11.3565 0.450195 18.4663 0.450195 20.2437 0.931066ZM15.0059 8.31223L9.09375 4.94531V11.6791L15.0059 8.31223Z" fill="white"/>
</svg>
