<svg width="675" height="92" viewBox="0 0 675 92" fill="none" xmlns="http://www.w3.org/2000/svg">
<path d="M96.1058 9.10047L87.7537 45.0315L78.7058 9.10047H61.2188L77.7488 70.0005H96.1928L104.893 38.0715L113.506 70.0005H131.95L148.48 9.10047H130.993L121.945 45.0315L113.593 9.10047H96.1058ZM168.762 25.6305C156.408 25.6305 145.098 32.6775 145.098 48.2505C145.098 63.8235 156.408 70.8705 169.458 70.8705C180.855 70.8705 190.86 65.5635 193.296 54.0795H176.07C175.896 59.3865 172.329 61.3005 169.545 61.3005C166.239 61.3005 162.585 58.4295 162.498 49.9905H193.818C193.818 33.6345 183.465 25.6305 168.762 25.6305ZM162.759 42.4215C163.542 37.2015 165.717 35.2005 169.023 35.2005C172.677 35.2005 174.939 37.6365 175.896 42.4215H162.759ZM231.258 26.0655C223.863 26.0655 218.991 31.7205 217.164 34.3305H216.381V9.10047H199.416V70.0005H216.381V61.5615H216.555C217.251 63.8235 220.296 70.8705 229.692 70.8705C239.958 70.8705 247.701 62.3445 247.701 47.9895C247.701 33.7215 239.958 26.0655 231.258 26.0655ZM222.384 57.1245C218.904 57.1245 216.381 55.0365 216.381 48.1635C216.381 41.1165 219.078 38.5935 222.558 38.5935C226.299 38.5935 230.301 41.3775 230.301 47.9025C230.301 54.5145 226.299 57.1245 222.384 57.1245ZM269.46 38.9415C269.46 37.1145 271.2 35.2005 274.854 35.2005C278.769 35.2005 280.857 37.2015 280.857 40.6815H297.909C298.257 32.5035 288.426 25.6305 274.593 25.6305C261.63 25.6305 252.408 31.6335 252.408 39.9855C252.408 54.8625 281.727 49.9035 281.727 56.9505C281.727 59.0385 279.291 61.3005 275.376 61.3005C271.461 61.3005 269.025 59.2125 269.025 55.8195L251.973 54.9495C251.973 63.5625 262.065 70.8705 275.028 70.8705C288.252 70.8705 298.779 64.0845 298.779 55.9065C298.779 42.3345 269.46 45.9015 269.46 38.9415ZM304.349 70.0005H321.749V26.5005H304.349V70.0005ZM304.349 22.5855H321.749V9.10047H304.349V22.5855ZM332.64 13.4505V26.5005H326.55V38.6805H332.64V52.6005C332.64 63.7365 337.077 71.0445 350.04 71.0445C353.259 71.0445 356.913 70.6095 361.176 69.6525C361.176 69.6525 358.566 58.2555 358.566 57.7335C356.391 58.6905 354.738 59.1255 353.433 59.1255C350.823 59.1255 349.866 57.0375 349.866 52.6005V38.6805H360.306V26.5005H349.866V13.4505H332.64ZM386.432 25.6305C374.078 25.6305 362.768 32.6775 362.768 48.2505C362.768 63.8235 374.078 70.8705 387.128 70.8705C398.525 70.8705 408.53 65.5635 410.966 54.0795H393.74C393.566 59.3865 389.999 61.3005 387.215 61.3005C383.909 61.3005 380.255 58.4295 380.168 49.9905H411.488C411.488 33.6345 401.135 25.6305 386.432 25.6305ZM380.429 42.4215C381.212 37.2015 383.387 35.2005 386.693 35.2005C390.347 35.2005 392.609 37.6365 393.566 42.4215H380.429ZM435.356 26.3265C435.356 23.0205 439.271 20.4105 444.056 20.4105C448.58 20.4105 452.234 23.5425 452.234 26.5005H470.504C470.504 16.5825 459.02 8.23047 443.534 8.23047C428.309 8.23047 417.086 15.7125 417.086 28.2405C417.086 50.8605 453.278 39.3765 453.278 51.5565C453.278 55.9935 448.754 58.6905 443.099 58.6905C437.879 58.6905 434.051 55.7325 434.051 52.6005L415.781 51.7305C415.781 61.8225 427.526 70.8705 443.708 70.8705C459.803 70.8705 471.374 63.4755 471.374 50.9475C471.374 28.3275 435.356 36.0705 435.356 26.3265ZM499.26 25.6305C486.906 25.6305 475.596 32.6775 475.596 48.2505C475.596 63.8235 486.906 70.8705 499.956 70.8705C511.353 70.8705 521.358 65.5635 523.794 54.0795H506.568C506.394 59.3865 502.827 61.3005 500.043 61.3005C496.737 61.3005 493.083 58.4295 492.996 49.9905H524.316C524.316 33.6345 513.963 25.6305 499.26 25.6305ZM493.257 42.4215C494.04 37.2015 496.215 35.2005 499.521 35.2005C503.175 35.2005 505.437 37.6365 506.394 42.4215H493.257ZM531.703 13.4505V26.5005H525.613V38.6805H531.703V52.6005C531.703 63.7365 536.14 71.0445 549.103 71.0445C552.322 71.0445 555.976 70.6095 560.239 69.6525C560.239 69.6525 557.629 58.2555 557.629 57.7335C555.454 58.6905 553.801 59.1255 552.496 59.1255C549.886 59.1255 548.929 57.0375 548.929 52.6005V38.6805H559.369V26.5005H548.929V13.4505H531.703ZM612.068 26.5005H594.668V52.6005C594.668 56.7765 591.971 58.6035 589.361 58.6035C586.055 58.6035 582.488 55.8195 582.488 50.8605V26.5005H565.088V50.8605C565.088 65.0415 572.483 70.8705 581.444 70.8705C588.23 70.8705 592.754 64.5195 594.146 62.1705H594.668V70.0005H612.068V26.5005ZM651.226 25.6305C643.396 25.6305 638.437 31.9815 636.871 34.3305H636.349V26.5005H619.384V91.7505H636.349V61.5615H636.697C637.654 64.1715 640.873 70.4355 649.66 70.4355C659.926 70.4355 667.669 61.9095 667.669 47.5545C667.669 33.2865 659.926 25.6305 651.226 25.6305ZM642.352 56.6895C638.872 56.6895 636.349 54.6015 636.349 47.7285C636.349 40.6815 639.046 38.1585 642.526 38.1585C646.267 38.1585 650.269 40.9425 650.269 47.4675C650.269 54.0795 646.267 56.6895 642.352 56.6895Z" fill="#060C3B"/>
<rect x="1" y="59" width="48" height="10" fill="#060C3B"/>
<rect x="33" y="9" width="16" height="43" fill="#0060DE"/>
<rect x="31.4062" y="15" width="16" height="43" transform="rotate(45 31.4062 15)" fill="#0060DE"/>
<rect x="49" y="9" width="16" height="43" transform="rotate(90 49 9)" fill="#0060DE"/>
</svg>
